<svg width="300" height="300" viewBox="0 0 300 300" fill="none" xmlns="http://www.w3.org/2000/svg">
<circle cx="150" cy="150" r="149" stroke="#02587B" stroke-width="2"/>
<path d="M150 36C127.9 36 109.922 54.3422 109.922 76.3457C109.922 98.3492 127.9 116.248 150 116.248C172.1 116.248 190.078 98.3492 190.078 76.3457C190.078 54.3422 172.1 36 150 36Z" fill="#02587B"/>
<path d="M163.36 116.248H150.001H136.641C127.219 116.248 118.115 118.673 109.838 122.798C123.896 126.574 137.132 132.013 150.001 139.367C162.869 132.013 176.105 126.574 190.163 122.798C181.886 118.673 172.782 116.248 163.36 116.248Z" fill="#02587B"/>
<path d="M250.641 156.15C243.262 156.15 237.281 162.105 237.281 169.451V196.053C237.281 203.398 243.262 209.354 250.641 209.354C258.019 209.354 264 203.398 264 196.053V169.451C264 162.105 258.019 156.15 250.641 156.15Z" fill="#02587B"/>
<path d="M49.3594 156.15C41.981 156.15 36 162.105 36 169.451V196.053C36 203.398 41.981 209.354 49.3594 209.354C56.7378 209.354 62.7188 203.398 62.7188 196.053V169.451C62.7188 162.105 56.7378 156.15 49.3594 156.15Z" fill="#02587B"/>
<path d="M56.0391 129.549C52.347 129.549 49.3594 132.523 49.3594 136.199V142.85C64.0952 142.85 76.0781 154.78 76.0781 169.451V196.053C76.0781 210.724 64.0952 222.654 49.3594 222.654V229.305C49.3594 232.981 52.347 235.955 56.0391 235.955C90.284 235.955 117.666 246.723 143.32 263V151.093C117.55 136.383 89.8396 129.549 56.0391 129.549Z" fill="#02587B"/>
<path d="M250.641 142.85V136.199C250.641 132.523 247.653 129.549 243.961 129.549C210.16 129.549 182.45 136.383 156.68 151.093V263C182.334 246.723 209.716 235.955 243.961 235.955C247.653 235.955 250.641 232.981 250.641 229.305V222.654C235.905 222.654 223.922 210.724 223.922 196.053V169.451C223.922 154.78 235.905 142.85 250.641 142.85Z" fill="#02587B"/>
</svg>
