<svg width="300" height="328" viewBox="0 0 300 328" fill="none" xmlns="http://www.w3.org/2000/svg">
<path d="M229.927 93.3218C220.092 82.1519 206.596 76 191.923 76C180.956 76 170.912 79.6307 162.069 86.7904C157.607 90.4044 153.565 94.8259 150 99.9866C146.437 94.8275 142.393 90.4044 137.929 86.7904C129.088 79.6307 119.044 76 108.077 76C93.4039 76 79.9068 82.1519 70.0713 93.3218C60.3533 104.361 55 119.443 55 135.79C55 152.615 60.9882 168.017 73.8446 184.261C85.3456 198.791 101.875 213.542 121.017 230.622C127.553 236.455 134.962 243.067 142.655 250.11C144.687 251.974 147.295 253 150 253C152.703 253 155.313 251.974 157.342 250.113C165.035 243.069 172.448 236.454 178.987 230.618C198.126 213.54 214.656 198.791 226.157 184.259C239.013 168.017 245 152.615 245 135.788C245 119.443 239.647 104.361 229.927 93.3218Z" fill="#02587B"/>
<circle cx="150" cy="153" r="148.5" stroke="#02587B" stroke-width="3"/>
</svg>
