<svg width="300" height="300" viewBox="0 0 300 300" fill="none" xmlns="http://www.w3.org/2000/svg">
<circle cx="150" cy="150" r="148.5" stroke="#02587B" stroke-width="3"/>
<path d="M109.802 185.353L113.078 182.217C110.685 175.701 110.678 168.528 113.235 161.904C94.4103 170.715 70.5785 167.204 56.3522 152.868C45.7858 160.008 39 171.04 39 183.398V239.062C39 242.134 41.9269 244.628 45.5332 244.628H99.3581C98.6307 242.888 98.2344 241.014 98.2344 239.062V211.23C98.2344 201.685 102.342 192.493 109.802 185.353V185.353Z" fill="#02587B"/>
<path d="M91.2656 155.565C109.307 155.565 123.932 143.105 123.932 127.733C123.932 112.362 109.307 99.9014 91.2656 99.9014C73.2247 99.9014 58.5996 112.362 58.5996 127.733C58.5996 143.105 73.2247 155.565 91.2656 155.565Z" fill="#02587B"/>
<path d="M244.648 152.868C230.396 167.23 206.548 170.703 187.766 161.9C190.318 168.537 190.318 175.693 187.922 182.217L191.198 185.353C198.659 192.493 202.766 201.685 202.766 211.23V239.062C202.766 241.014 202.37 242.888 201.642 244.628H255.467C259.073 244.628 262 242.134 262 239.062V183.398C262 171.04 255.214 160.008 244.648 152.868V152.868Z" fill="#02587B"/>
<path d="M209.734 155.565C227.775 155.565 242.4 143.105 242.4 127.733C242.4 112.362 227.775 99.9014 209.734 99.9014C191.693 99.9014 177.068 112.362 177.068 127.733C177.068 143.105 191.693 155.565 209.734 155.565Z" fill="#02587B"/>
<path d="M150.5 205.663C137.939 205.663 126.741 200.605 119.563 192.753C114.424 197.674 111.301 204.145 111.301 211.23V239.062C111.301 242.134 114.228 244.628 117.834 244.628H183.166C186.772 244.628 189.699 242.134 189.699 239.062V211.23C189.699 204.145 186.576 197.674 181.437 192.753C174.259 200.605 163.061 205.663 150.5 205.663V205.663Z" fill="#02587B"/>
<path d="M150.5 194.53C164.933 194.53 176.633 184.562 176.633 172.265C176.633 159.968 164.933 149.999 150.5 149.999C136.067 149.999 124.367 159.968 124.367 172.265C124.367 184.562 136.067 194.53 150.5 194.53Z" fill="#02587B"/>
<path d="M131.91 100.27C139.37 106.144 146.764 110.045 147.075 110.208C149.176 111.309 151.824 111.309 153.925 110.208C154.236 110.045 161.63 106.144 169.089 100.27C179.875 91.7773 185.344 83.5208 185.344 75.7304C185.344 58.0382 164.694 49.7335 150.5 59.5619C136.274 49.7116 115.656 58.0849 115.656 75.7304C115.656 83.5208 121.125 91.7773 131.91 100.27V100.27Z" fill="#02587B"/>
</svg>
