<svg width="300" height="300" viewBox="0 0 300 300" fill="none" xmlns="http://www.w3.org/2000/svg">
<circle cx="150" cy="150" r="148.5" stroke="#02587B" stroke-width="3"/>
<path d="M111.315 66.8833C89.9779 66.8833 72.6191 85.462 72.6191 108.298C72.6191 131.134 89.9779 149.713 111.315 149.713C132.652 149.713 150.011 131.134 150.011 108.298C150.011 85.462 132.652 66.8833 111.315 66.8833Z" fill="#02587B"/>
<path d="M199.291 72.8101C199.204 72.8101 199.115 72.8105 199.028 72.8109C190.073 72.8857 181.709 76.7022 175.477 83.5581C169.354 90.2929 166.024 99.1776 166.101 108.575C166.178 117.973 169.652 126.801 175.884 133.433C182.166 140.117 190.486 143.787 199.341 143.787C199.43 143.787 199.519 143.787 199.609 143.787C208.563 143.712 216.927 139.895 223.16 133.039C229.283 126.305 232.613 117.42 232.536 108.022C232.377 88.547 217.489 72.8101 199.291 72.8101Z" fill="#02587B"/>
<path d="M200.925 150.568H197.711C182.747 150.568 169.091 156.311 158.781 165.723C161.361 167.721 163.816 169.899 166.143 172.248C173.008 179.178 178.4 187.253 182.167 196.248C185.563 204.348 187.501 212.883 187.952 221.673H259.001V209.188C259.001 176.866 232.948 150.568 200.925 150.568Z" fill="#02587B"/>
<path d="M175.504 221.672C174.333 202.617 164.764 185.857 150.482 175.115C140.094 167.299 127.208 162.672 113.25 162.672H109.383C74.9285 162.672 47 190.864 47 225.643V233.116H175.629V225.643C175.629 224.31 175.587 222.985 175.504 221.672Z" fill="#02587B"/>
</svg>
