<svg width="300" height="300" viewBox="0 0 300 300" fill="none" xmlns="http://www.w3.org/2000/svg">
<circle cx="150" cy="150" r="149" stroke="#02587B" stroke-width="2"/>
<g clip-path="url(#clip0)">
<path d="M258.883 173.784C258.34 162.727 256.168 150.467 252.909 138.928C249.651 127.87 245.578 117.533 240.691 109.6C221.684 80.0324 201.047 84.5998 176.338 90.3692C168.464 92.0519 160.047 93.975 151.358 94.6962H148.642C139.954 93.975 131.536 92.0519 123.662 90.3692C98.9527 84.8402 78.3166 80.0324 59.3096 109.841C54.4221 117.774 50.0776 128.11 47.0908 139.168C43.8325 150.707 41.6602 162.967 41.1172 174.025C40.5741 186.285 41.9318 195.179 44.9186 201.429C47.9054 207.199 52.2498 210.804 57.9519 212.247C63.111 213.449 69.0846 212.968 75.3298 210.564C85.9194 206.718 98.1381 198.545 110.085 188.689C118.503 181.477 134.251 177.871 150 177.871C165.749 177.871 181.497 181.477 189.915 188.689C201.862 198.545 214.081 206.718 224.67 210.564C230.916 212.728 236.889 213.449 242.048 212.247C247.479 210.804 252.095 207.439 255.082 201.189C258.068 195.179 259.426 186.285 258.883 173.784ZM245.85 197.823C244.22 201.189 242.048 203.112 239.333 203.833C236.346 204.554 232.545 204.074 228.2 202.631C218.697 199.266 207.564 191.814 196.703 182.679C186.385 173.544 168.192 168.977 150 168.977C131.808 168.977 113.615 173.544 103.026 182.198C91.893 191.333 80.7603 199.025 71.5284 202.15C67.1839 203.593 63.3825 204.314 60.3957 203.352C57.6804 202.631 55.5082 200.708 53.879 197.343C51.7068 192.775 50.6207 185.323 51.1637 174.265C51.7068 163.928 53.6075 152.149 56.8658 141.091C59.8526 130.755 63.654 121.139 68.27 113.927C83.2041 90.1288 100.582 93.975 121.218 98.7828C129.635 100.706 138.324 102.629 147.828 103.35C148.099 103.35 148.099 103.35 148.371 103.35H151.358C151.629 103.35 151.629 103.35 151.901 103.35C161.676 102.629 170.365 100.706 178.782 98.7828C199.418 94.2154 216.796 90.1288 231.73 113.927C236.346 121.139 240.147 130.514 243.134 141.091C246.121 152.149 248.293 163.688 248.836 174.265C249.379 185.323 248.293 192.775 245.85 197.823Z" fill="#02587B"/>
<path d="M125.019 126.908C122.304 124.745 119.045 123.062 115.244 122.822C114.972 119.697 113.343 116.572 110.899 114.408L110.628 114.168C107.641 111.523 103.84 110.081 99.4952 110.081C95.1507 110.081 91.0778 111.764 88.3625 114.168C85.9187 116.331 84.018 119.456 83.7465 122.822C79.9451 123.062 76.6868 124.504 73.9715 126.668L73.7 126.908C70.7132 129.553 69.084 132.918 69.084 136.764C69.084 140.611 70.9847 144.216 73.7 146.62C76.4153 149.024 79.6736 150.467 83.7465 150.707C84.018 154.072 85.6472 157.197 88.3625 159.361C91.3493 162.005 95.1507 163.448 99.4952 163.448C103.84 163.448 107.913 161.765 110.628 159.361C113.072 156.957 114.972 154.072 115.244 150.707C119.045 150.467 122.575 149.024 125.019 146.62C128.006 143.976 129.635 140.611 129.635 136.764C129.635 132.918 127.734 129.312 125.019 126.908ZM118.231 140.37C117.145 141.332 115.787 141.813 114.158 141.813H110.356C107.641 141.813 105.197 143.736 105.197 146.38V149.505C105.197 150.947 104.654 152.149 103.568 153.111C102.482 154.072 101.124 154.553 99.4952 154.553C97.866 154.553 96.5084 154.072 95.4222 153.111C94.3361 152.149 93.7931 150.947 93.7931 149.505V146.14C93.7931 143.736 91.6208 141.572 88.634 141.572H84.8326C83.2035 141.572 81.8458 141.091 80.7597 140.13C79.9451 139.409 79.1305 138.207 79.1305 136.764C79.1305 135.322 79.6736 134.12 80.7597 133.158C80.7597 133.158 80.7597 133.158 81.0312 132.918C82.1173 132.197 83.475 131.716 84.8326 131.716H88.634C91.3493 131.716 93.7931 129.793 93.7931 127.149V123.783C93.7931 122.341 94.3361 121.139 95.4222 120.177C96.5084 119.216 97.866 118.735 99.4952 118.735C101.124 118.735 102.482 119.216 103.568 120.177C103.568 120.177 103.568 120.177 103.84 120.418C104.654 121.379 105.197 122.581 105.197 123.783V127.149C105.197 129.553 107.369 131.716 110.356 131.716H114.158C115.787 131.716 117.145 132.197 118.231 133.158C119.317 134.12 119.86 135.322 119.86 136.764C119.86 138.207 119.317 139.409 118.231 140.37Z" fill="#02587B"/>
<path d="M197.246 128.11C202.494 128.11 206.749 124.344 206.749 119.697C206.749 115.05 202.494 111.283 197.246 111.283C191.997 111.283 187.742 115.05 187.742 119.697C187.742 124.344 191.997 128.11 197.246 128.11Z" fill="#02587B"/>
<path d="M197.246 162.246C202.494 162.246 206.749 158.479 206.749 153.832C206.749 149.185 202.494 145.418 197.246 145.418C191.997 145.418 187.742 149.185 187.742 153.832C187.742 158.479 191.997 162.246 197.246 162.246Z" fill="#02587B"/>
<path d="M177.968 145.178C183.217 145.178 187.472 141.411 187.472 136.764C187.472 132.118 183.217 128.351 177.968 128.351C172.72 128.351 168.465 132.118 168.465 136.764C168.465 141.411 172.72 145.178 177.968 145.178Z" fill="#02587B"/>
<path d="M216.525 145.178C221.774 145.178 226.028 141.411 226.028 136.764C226.028 132.118 221.774 128.351 216.525 128.351C211.276 128.351 207.021 132.118 207.021 136.764C207.021 141.411 211.276 145.178 216.525 145.178Z" fill="#02587B"/>
</g>
<defs>
<clipPath id="clip0">
<rect x="41" y="53" width="218" height="193" fill="white"/>
</clipPath>
</defs>
</svg>
