<svg width="641" height="429" viewBox="0 0 641 429" fill="none" xmlns="http://www.w3.org/2000/svg">
<line x1="1" y1="-6.48879e-05" x2="1.02784" y2="429" stroke="#E0E8EB" stroke-width="2"/>
<line y1="428" x2="641" y2="428" stroke="#E0E8EB" stroke-width="2"/>
<line y1="-1.5" x2="111.301" y2="-1.5" transform="matrix(0.696969 -0.717101 0.684183 0.729311 4.08276 302.153)" stroke="#E0E8EB" stroke-width="3"/>
<line y1="-1.5" x2="111.301" y2="-1.5" transform="matrix(0.696969 -0.717101 0.684183 0.729311 367.452 429)" stroke="#E0E8EB" stroke-width="3"/>
<line y1="-1.5" x2="126.675" y2="-1.5" transform="matrix(0.923939 0.38254 -0.35318 0.935555 78.9342 222.339)" stroke="#E0E8EB" stroke-width="3"/>
<line y1="-1.5" x2="193.775" y2="-1.5" transform="matrix(0.337117 -0.941463 0.930794 0.365543 195.974 270.797)" stroke="#E0E8EB" stroke-width="3"/>
<line y1="-1.5" x2="193.775" y2="-1.5" transform="matrix(0.337117 -0.941463 0.930794 0.365543 442.304 353.462)" stroke="#E0E8EB" stroke-width="3"/>
<line y1="-1.5" x2="358.028" y2="-1.5" transform="matrix(0.307897 0.95142 -0.942401 0.334485 257.217 88.3655)" stroke="#E0E8EB" stroke-width="3"/>
</svg>
