<svg width="100" height="100" viewBox="0 0 100 100" fill="none" xmlns="http://www.w3.org/2000/svg">
<path d="M85.3554 14.6446C75.9117 5.20096 63.3553 0 50 0C39.8384 0 30.0537 3.03421 21.7056 8.7738C20.8168 9.38568 20.5917 10.601 21.2029 11.4899C21.814 12.3795 23.0301 12.6045 23.9189 11.9926C31.6132 6.70242 40.6319 3.90625 50 3.90625C75.4158 3.90625 96.0938 24.5842 96.0938 50C96.0938 75.4158 75.4158 96.0938 50 96.0938C24.5842 96.0938 3.90625 75.4158 3.90625 50C3.90625 40.6303 6.70242 31.6124 11.9919 23.9197C12.603 23.0309 12.3779 21.8155 11.4891 21.2044C10.601 20.5933 9.38492 20.8176 8.77304 21.7064C3.03345 30.0529 0 39.8369 0 50C0 63.3553 5.20096 75.9117 14.6446 85.3554C24.0883 94.799 36.6447 100 50 100C63.3553 100 75.9117 94.799 85.3554 85.3554C94.799 75.9117 100 63.3553 100 50C100 36.6447 94.799 24.0883 85.3554 14.6446V14.6446Z" fill="#02587B"/>
<path d="M16.0251 17.9785C16.5256 17.9785 17.0261 17.7878 17.4076 17.4063C18.1697 16.6441 18.1697 15.4074 17.4076 14.6445C16.6446 13.8815 15.4079 13.8815 14.6449 14.6445L14.6442 14.6452C13.8812 15.4082 13.882 16.6441 14.6442 17.4071C15.0257 17.7885 15.5254 17.9785 16.0251 17.9785Z" fill="#02587B"/>
<path d="M34.3093 63.533C34.03 62.4908 32.9589 61.8728 31.9175 62.152C30.8753 62.4313 30.2565 63.5017 30.5358 64.5439C32.8925 73.3375 40.8965 79.4792 50.0007 79.4792C59.1048 79.4792 67.1088 73.3383 69.4655 64.5439C69.7448 63.5017 69.126 62.4313 68.0838 62.152C67.0417 61.8728 65.9713 62.4908 65.692 63.533C63.7923 70.6222 57.3401 75.5729 50.0007 75.5729C42.6612 75.5729 36.209 70.6222 34.3093 63.533V63.533Z" fill="#02587B"/>
<path d="M60.6504 49.2318C61.2531 46.9842 63.2985 45.4141 65.6255 45.4141C67.9517 45.4141 69.9971 46.9842 70.5999 49.2318C70.8333 50.1039 71.6222 50.6799 72.4851 50.6799C72.6522 50.6799 72.8223 50.6577 72.9917 50.6127C74.0338 50.3335 74.6518 49.2623 74.3726 48.2209C73.3136 44.2681 69.7171 41.5078 65.6255 41.5078C61.5338 41.5078 57.9366 44.2681 56.8776 48.2209C56.5984 49.2623 57.2164 50.3335 58.2585 50.6127C59.3015 50.892 60.3719 50.2732 60.6504 49.2318V49.2318Z" fill="#02587B"/>
<path d="M34.3747 41.5078C30.2831 41.5078 26.6866 44.2681 25.6276 48.2209C25.3484 49.2623 25.9664 50.3335 27.0085 50.6127C28.0515 50.892 29.1219 50.2732 29.4004 49.2318C30.0031 46.9842 32.0485 45.4141 34.3747 45.4141C36.7017 45.4141 38.7471 46.9842 39.3499 49.2318C39.5833 50.1039 40.3722 50.6799 41.2351 50.6799C41.4022 50.6799 41.5723 50.6577 41.7417 50.6127C42.7838 50.3335 43.4018 49.2623 43.1226 48.2209C42.0636 44.2681 38.4664 41.5078 34.3747 41.5078V41.5078Z" fill="#02587B"/>
</svg>
