<svg width="500" height="500" viewBox="0 0 500 500" fill="none" xmlns="http://www.w3.org/2000/svg">
<circle cx="250" cy="250" r="250" fill="#02587B"/>
<g clip-path="url(#clip0)">
<path d="M88.3668 291.519C90.2354 292.787 92.2086 293.901 94.2661 294.849C96.7213 296.076 100.842 298.129 101.132 299.567C101.489 301.464 101.255 303.423 100.461 305.189C99.6141 306.965 98.7275 308.491 97.9603 309.807C95.8802 313.398 92.3963 319.414 97.6477 323.604C98.8753 324.714 100.995 326.318 102.928 327.766C101.505 330.195 100.862 332.985 101.08 335.775C101.382 337.972 102.602 339.949 104.451 341.236C105.712 342.102 107.059 342.857 108.384 343.595C111.748 345.46 113.061 346.331 113.499 348.074C113.814 350.308 113.62 352.582 112.93 354.734C112.595 356.216 112.271 357.703 112.078 359.174C111.513 364.232 112.153 369.349 113.948 374.126C116.504 382.944 124.672 389.087 134.055 389.249C135.621 389.245 137.183 389.083 138.715 388.766C154.952 385.008 170.95 380.333 186.632 374.764C199.436 382.101 207.524 404.412 209.632 412.787C210.262 415.263 212.538 417.001 215.151 416.999L357.802 416.611C359.61 416.607 361.308 415.764 362.377 414.34C363.445 412.916 363.755 411.08 363.213 409.396C361.808 405.635 359.87 402.086 357.456 398.851C356.093 396.932 354.864 394.926 353.779 392.846C351.204 387.759 349.058 382.477 347.362 377.05C344.115 366.325 341.865 355.336 340.639 344.217C338.64 327.628 341.213 310.82 348.09 295.526C349.335 292.836 350.738 290.218 352.289 287.684C398.317 270.147 426.285 224.341 420.201 176.461C414.116 128.58 375.531 90.8395 326.51 84.8208C322.033 84.2837 317.528 84.0094 313.018 83.9994C304.292 84.0323 295.602 85.104 287.141 87.1906C275.162 84.5467 262.867 83.5307 250.603 84.1714C232.11 85.424 213.736 87.9987 195.628 91.8748C170.002 96.8698 151.378 105.644 138.664 118.765C128.636 129.244 120.881 141.596 115.868 155.078C113.822 160.88 112.14 166.798 110.833 172.799L110.265 175.141C109.052 179.494 107.425 183.727 105.405 187.784C104.269 190.315 103.087 192.846 102.069 195.466C100.761 198.382 100.245 201.577 100.569 204.745C101.712 209.719 104.652 214.124 108.85 217.155C111.629 219.641 113.453 221.395 113.476 222.921C113.272 223.765 112.947 224.576 112.51 225.33C105.704 239.323 97.367 252.555 87.645 264.796C83.5246 269.691 79.2053 275.402 80.1146 281.119C81.3202 285.529 84.295 289.278 88.3668 291.519ZM325.1 95.832C373.387 101.82 409.593 141.917 409.634 189.449C409.646 229.816 383.352 265.714 344.23 278.747C305.107 291.779 261.829 279.055 236.577 247.097C223.428 230.631 216.323 210.33 216.401 189.449C216.46 137.365 259.682 95.1575 313.018 95.0994C317.057 95.1055 321.092 95.3502 325.1 95.832ZM96.6247 271.589C106.804 258.792 115.532 244.955 122.654 230.32C123.986 228.027 124.737 225.456 124.842 222.822C124.255 217.243 121.228 212.184 116.539 208.947C114.266 206.887 112.078 204.945 111.822 203.136C111.86 201.826 112.161 200.536 112.709 199.339C113.635 196.958 114.703 194.627 115.778 192.291C118.108 187.598 119.969 182.697 121.336 177.656L121.904 175.291C123.105 169.748 124.651 164.283 126.536 158.924C131.016 146.849 137.953 135.784 146.928 126.396C157.8 115.163 174.913 107.215 197.873 102.758C215.43 98.9937 233.246 96.4877 251.177 95.2603C255.637 95.0627 260.105 95.0904 264.562 95.3435C228.112 113.217 205.085 149.62 205.034 189.449C205.088 247.666 253.402 294.847 313.018 294.899C321.16 294.901 329.278 294.012 337.217 292.246C329.899 309.053 327.193 327.432 329.369 345.571C330.68 357.356 333.072 369.002 336.518 380.369C338.388 386.335 340.747 392.144 343.571 397.741C344.868 400.254 346.34 402.678 347.976 404.995L348.357 405.55L219.447 405.899C215.674 392.734 208.827 380.602 199.442 370.457L204.557 368.709C208.365 367.41 211.235 366.433 212.707 365.973C237.054 358.452 249.228 347.624 248.898 333.783C248.824 330.77 246.301 328.365 243.215 328.366H243.113C239.976 328.439 237.493 330.98 237.566 334.044C237.702 339.754 232.911 348.085 209.285 355.383C207.745 355.866 204.779 356.876 200.84 358.219C196.617 359.662 191.247 361.494 185.325 363.459H185.285C169.291 369.184 152.971 374.002 136.408 377.889C131.108 378.886 125.947 375.621 124.712 370.49C123.498 367.333 123.041 363.946 123.376 360.589C123.524 359.424 123.797 358.269 124.058 357.109C125.216 353.272 125.386 349.215 124.553 345.299C122.901 340.201 119.059 336.058 114.027 333.949L112.851 333.289C113.464 332.079 114.197 330.93 115.039 329.859C115.992 328.679 116.415 327.172 116.21 325.683C116.006 324.193 115.191 322.848 113.953 321.956C112.589 320.979 109.372 318.626 107.02 316.772C107.292 316.289 107.588 315.756 107.872 315.273C108.764 313.747 109.782 311.971 110.776 309.918C112.575 306.027 113.104 301.691 112.294 297.497C110.93 290.726 104.286 287.407 99.4436 284.987C97.8086 284.228 96.2403 283.339 94.7549 282.329C93.5464 281.531 92.4129 280.63 91.3676 279.637C91.396 278.804 92.294 276.751 96.6247 271.589Z" fill="white"/>
<path d="M136.636 186.903C139.69 187.596 142.741 185.743 143.456 182.762L144.024 180.348C145.022 175.711 146.291 171.134 147.827 166.64C151.254 157.376 156.558 148.882 163.422 141.665C170.788 134.883 179.804 130.049 189.616 127.618C191.597 127.072 193.122 125.524 193.602 123.569C194.081 121.614 193.441 119.559 191.928 118.196C190.415 116.833 188.265 116.376 186.308 117C174.597 119.973 163.869 125.843 155.158 134.045C147.244 142.354 141.13 152.138 137.182 162.81C135.478 167.731 134.074 172.746 132.976 177.828L132.408 180.232C131.69 183.214 133.583 186.2 136.636 186.903Z" fill="white"/>
<path d="M131.152 206.1C134.291 206.1 136.835 203.615 136.835 200.55C136.835 197.485 134.291 195 131.152 195C128.013 195 125.469 197.485 125.469 200.55C125.469 203.615 128.013 206.1 131.152 206.1Z" fill="white"/>
<path d="M303.828 209.13C301.703 208.27 299.258 208.746 297.633 210.334L260.236 246.853C259.077 247.98 258.471 249.54 258.574 251.134C258.676 252.728 259.476 254.201 260.771 255.178C272.419 264.045 286.229 269.802 300.844 271.884C301.111 271.919 301.381 271.937 301.651 271.939C304.79 271.939 307.334 269.454 307.334 266.389V214.258C307.335 212.013 305.951 209.989 303.828 209.13ZM295.968 259.668C287.817 257.761 280.06 254.511 273.03 250.055L295.968 227.656V259.668Z" fill="white"/>
<path d="M324.385 271.923C324.654 271.921 324.924 271.902 325.192 271.867C339.807 269.786 353.616 264.029 365.265 255.162C366.559 254.185 367.359 252.711 367.462 251.117C367.564 249.523 366.958 247.963 365.799 246.837L328.403 210.318C326.775 208.729 324.327 208.255 322.202 209.118C320.077 209.981 318.695 212.011 318.701 214.258V266.373C318.701 269.438 321.246 271.923 324.385 271.923ZM330.068 227.656L353.006 250.056C345.976 254.511 338.218 257.762 330.068 259.668V227.656Z" fill="white"/>
<path d="M373.562 238.718C374.628 239.758 376.073 240.343 377.581 240.344C377.734 240.344 377.887 240.344 378.035 240.344C379.696 240.213 381.215 239.377 382.19 238.057C392.675 223.921 398.304 206.905 398.268 189.45C398.077 148.132 367.045 113.13 325.197 107.033C323.565 106.802 321.91 107.276 320.664 108.33C319.417 109.385 318.701 110.916 318.701 112.527V182.846C318.701 184.317 319.3 185.729 320.366 186.77L373.562 238.718ZM330.068 119.232C363.289 127.098 386.738 156.069 386.901 189.45C386.934 202.327 383.399 214.972 376.671 226.047L330.068 180.57V119.232Z" fill="white"/>
<path d="M243.846 238.04C244.82 239.361 246.339 240.197 248 240.327C248.148 240.327 248.302 240.327 248.455 240.327C249.962 240.327 251.408 239.742 252.473 238.701L305.669 186.753C306.731 185.716 307.33 184.312 307.334 182.846V112.527C307.334 110.916 306.616 109.385 305.368 108.331C304.114 107.28 302.458 106.807 300.821 107.033C258.98 113.138 227.957 148.138 227.768 189.45C227.735 206.899 233.364 223.909 243.846 238.04ZM295.968 119.232V180.57L249.364 226.08C242.631 214.996 239.096 202.338 239.134 189.45C239.298 156.069 262.747 127.098 295.968 119.232Z" fill="white"/>
</g>
<defs>
<clipPath id="clip0">
<rect x="80" y="84" width="341" height="333" fill="white"/>
</clipPath>
</defs>
</svg>
