<svg width="300" height="300" viewBox="0 0 300 300" fill="none" xmlns="http://www.w3.org/2000/svg">
<path d="M239 150C239 96.9805 196.02 54 143 54C89.9805 54 47 96.9805 47 150C47 203.02 89.9805 246 143 246H239V230H196C222.84 212.23 238.988 182.191 239 150ZM190.023 214.723C179.301 222.512 164.289 220.137 156.5 209.41C148.711 198.688 151.086 183.68 161.809 175.887C172.535 168.098 187.543 170.473 195.332 181.199C203.125 191.922 200.746 206.93 190.023 214.723ZM188.844 109.871C201.449 105.773 214.988 112.672 219.086 125.277C223.18 137.887 216.281 151.426 203.676 155.52C191.07 159.617 177.531 152.719 173.434 140.113C169.34 127.508 176.238 113.965 188.844 109.871ZM143 70C156.254 70 167 80.7461 167 94C167 107.254 156.254 118 143 118C129.746 118 119 107.254 119 94C119 80.7461 129.746 70 143 70ZM66.9141 125.277C71.0117 112.672 84.5508 105.773 97.1562 109.867C109.762 113.965 116.66 127.504 112.566 140.109C108.469 152.715 94.9297 159.613 82.3242 155.52C69.7188 151.426 62.8203 137.887 66.9141 125.277ZM129.5 209.41C121.711 220.137 106.699 222.512 95.9766 214.723C85.2539 206.93 82.875 191.922 90.668 181.199C98.457 170.477 113.469 168.098 124.191 175.891C134.914 183.68 137.289 198.688 129.5 209.41ZM135 150C135 145.582 138.582 142 143 142C147.418 142 151 145.582 151 150C151 154.418 147.418 158 143 158C138.582 158 135 154.418 135 150Z" fill="#02587B"/>
<circle cx="150" cy="150" r="148.5" stroke="#02587B" stroke-width="3"/>
</svg>
