<svg width="300" height="300" viewBox="0 0 300 300" fill="none" xmlns="http://www.w3.org/2000/svg">
<circle cx="150" cy="150" r="149" stroke="#02587B" stroke-width="2"/>
<path d="M234.676 75.3834C233.222 74.1823 231.308 73.7651 229.443 74.1444L117.586 99.4301C114.74 100.075 112.714 102.641 112.714 105.6V205.605C107.507 202.394 101.094 200.421 94.0714 200.421C76.9449 200.421 63 211.762 63 225.707C63 239.652 76.9449 250.993 94.0714 250.993C111.198 250.993 125.143 239.652 125.143 225.707V148.598L224.571 126.119V180.319C219.364 177.108 212.951 175.136 205.929 175.136C188.79 175.136 174.857 186.476 174.857 200.421C174.857 214.366 188.79 225.707 205.929 225.707C223.068 225.707 237 214.366 237 200.421V80.3141C237 78.3924 236.155 76.5845 234.676 75.3834Z" fill="#02587B"/>
</svg>
