<svg width="300" height="300" viewBox="0 0 300 300" fill="none" xmlns="http://www.w3.org/2000/svg">
<path d="M110.375 79.0889H81.875C78.7659 79.0889 76.25 81.6441 76.25 84.8018C76.25 87.9595 78.7659 90.5146 81.875 90.5146H110.375C113.484 90.5146 116 87.9595 116 84.8018C116 81.6441 113.484 79.0889 110.375 79.0889Z" fill="#02587B"/>
<path d="M110.375 124.792H81.875C78.7659 124.792 76.25 127.347 76.25 130.505C76.25 133.663 78.7659 136.218 81.875 136.218H110.375C113.484 136.218 116 133.663 116 130.505C116 127.347 113.484 124.792 110.375 124.792Z" fill="#02587B"/>
<path d="M99.125 101.94H70.625C67.5159 101.94 65 104.496 65 107.653C65 110.811 67.5159 113.366 70.625 113.366H99.125C102.234 113.366 104.75 110.811 104.75 107.653C104.75 104.496 102.234 101.94 99.125 101.94Z" fill="#02587B"/>
<path d="M245.75 130.505H211.625V107.653C211.625 97.6192 199.539 92.336 192.418 99.5784L147.421 145.278C143.026 149.741 143.026 156.972 147.421 161.435L173.217 187.634L141.796 219.546C137.401 224.009 137.401 231.239 141.796 235.702C146.19 240.165 153.31 240.166 157.704 235.702L197.079 195.712C201.474 191.249 201.474 184.019 197.079 179.555L171.283 153.356L189.125 135.236V141.931C189.125 148.24 194.162 153.356 200.375 153.356H245.75C251.963 153.356 257 148.24 257 141.931C257 135.621 251.963 130.505 245.75 130.505Z" fill="#02587B"/>
<path d="M170.053 72.4391C165.581 69.4208 159.649 70.018 155.858 73.8673L124.921 105.288C120.526 109.751 120.526 116.982 124.921 121.445C129.316 125.908 136.435 125.908 140.83 121.445L165.247 96.6461L173.472 102.664L184.462 91.5022C186.3 89.6353 188.468 88.1861 190.839 87.0546L170.053 72.4391Z" fill="#02587B"/>
<path d="M139.467 169.513C136.616 166.618 134.714 163.055 133.711 159.203L74.296 219.546C69.9013 224.009 69.9013 231.239 74.296 235.702C78.6902 240.165 85.8096 240.166 90.2042 235.702L147.421 177.592L139.467 169.513Z" fill="#02587B"/>
<path d="M217.25 96.2275C226.57 96.2275 234.125 88.5543 234.125 79.0889C234.125 69.6234 226.57 61.9502 217.25 61.9502C207.93 61.9502 200.375 69.6234 200.375 79.0889C200.375 88.5543 207.93 96.2275 217.25 96.2275Z" fill="#02587B"/>
<circle cx="150" cy="150" r="149" stroke="#02587B" stroke-width="2"/>
</svg>
