<svg width="100" height="100" viewBox="0 0 100 100" fill="none" xmlns="http://www.w3.org/2000/svg">
<path d="M73.0293 48.1967C69.3639 46.0578 65.2078 45.4379 61.3256 46.4508C60.543 46.6551 60.074 47.4551 60.2783 48.2375C60.4826 49.0201 61.2824 49.4895 62.065 49.2848C65.1916 48.4691 68.5613 48.9809 71.5527 50.7268C72.2514 51.1342 73.148 50.8988 73.5558 50.1998C73.9637 49.5012 73.7279 48.6045 73.0293 48.1967Z" fill="#02587B"/>
<path d="M38.698 46.4513C34.8167 45.4382 30.6597 46.0585 26.9941 48.1972C26.2956 48.605 26.0597 49.5017 26.4675 50.2003C26.8757 50.9 27.7724 51.1343 28.4706 50.7273C31.4621 48.9816 34.832 48.4697 37.9585 49.2853C38.7404 49.49 39.541 49.0207 39.7453 48.238C39.9496 47.4554 39.4806 46.6554 38.698 46.4513Z" fill="#02587B"/>
<path d="M61.2843 73.1786C56.9684 63.6386 43.1852 63.3989 38.7413 73.1761C38.4061 73.9124 38.7317 74.7806 39.468 75.1155C40.2046 75.4503 41.0725 75.1247 41.4075 74.3886C44.7661 67.0083 55.2741 67.0001 58.6157 74.386C58.9489 75.123 59.8167 75.4501 60.5536 75.1167C61.2905 74.7831 61.6178 73.9155 61.2843 73.1786Z" fill="#02587B"/>
<path d="M62.9451 1.72359C49.6855 -1.82934 35.6162 0.109138 23.6298 7.55269C22.9425 7.97945 22.7314 8.88238 23.158 9.56949C23.5853 10.2566 24.488 10.4677 25.1748 10.0412C36.0914 3.2648 49.2806 1.09488 62.1871 4.55308C98.0445 14.1611 109.036 59.6503 81.8945 84.6082C81.299 85.1556 81.2603 86.0822 81.8078 86.6775C82.3548 87.2728 83.2818 87.3117 83.8771 86.7642C112.696 60.2636 101.05 11.9339 62.9451 1.72359Z" fill="#02587B"/>
<path d="M78.7398 89.1245C78.2816 88.4579 77.3695 88.2886 76.7033 88.7468C53.8535 104.444 22.897 97.1357 9.26482 73.5246C-2.28186 53.5249 2.49685 28.3769 19.8013 13.922C20.422 13.4037 20.5049 12.4798 19.9863 11.8591C19.4679 11.2386 18.5443 11.1554 17.9234 11.674C9.00427 19.1248 2.93709 29.5591 0.839234 41.0548C-3.73655 66.1355 11.4437 91.4076 37.0759 98.2757C51.5648 102.158 66.4345 99.357 78.3619 91.1609C79.0287 90.7029 79.1978 89.7912 78.7398 89.1245Z" fill="#02587B"/>
</svg>
