<svg width="300" height="300" viewBox="0 0 300 300" fill="none" xmlns="http://www.w3.org/2000/svg">
<circle cx="150" cy="150" r="149" stroke="#02587B" stroke-width="2"/>
<path d="M150.5 33C85.055 33 32 85.6073 32 150.5C32 215.393 85.055 268 150.5 268C215.945 268 269 215.393 269 150.5C268.927 85.6379 215.914 33.0727 150.5 33ZM154.73 66.875L195.925 50.5466C200.6 52.6445 205.123 55.0618 209.461 57.7813L209.569 57.8483C213.831 60.5257 217.905 63.488 221.762 66.7143L222.094 67.0012C223.824 68.4623 225.506 69.975 227.141 71.5356C227.348 71.7364 227.564 71.9276 227.77 72.1322C229.485 73.7922 231.145 75.5039 232.752 77.2652C232.885 77.4144 233.012 77.5712 233.145 77.7204C234.555 79.2867 235.911 80.9084 237.226 82.5569C237.543 82.949 237.859 83.341 238.166 83.7331C239.593 85.5652 240.974 87.4298 242.278 89.3537L234.065 123.969L193.661 137.325L154.739 106.445L154.73 66.875ZM62.8304 83.756C63.1371 83.364 63.4496 82.9719 63.7659 82.5818C65.0658 80.9467 66.4101 79.3517 67.7988 77.795C67.9492 77.6305 68.0881 77.4622 68.2366 77.2977C69.8336 75.5326 71.4865 73.8228 73.1992 72.1667C73.3959 71.9754 73.5927 71.7746 73.799 71.5987C75.4211 70.0477 77.0894 68.5445 78.804 67.0911L79.1994 66.7621C83.0221 63.5588 87.057 60.6156 91.277 57.9496L91.4313 57.8521C95.7439 55.1383 100.238 52.7249 104.886 50.625L146.27 66.875V106.434L107.347 137.308L66.9425 123.976L58.73 89.3614C60.0454 87.4413 61.4109 85.5805 62.8304 83.756ZM58.0704 210.602C56.9093 208.846 55.7984 207.058 54.7395 205.236L54.483 204.796C53.4299 202.983 52.4328 201.139 51.4935 199.267L51.4607 199.208C49.4818 195.268 47.7441 191.214 46.259 187.066V187.028C45.5569 185.069 44.9166 183.063 44.3245 181.045L44.1104 180.301C43.5684 178.406 43.0766 176.49 42.6368 174.553C42.5983 174.363 42.55 174.184 42.5115 173.996C41.5413 169.621 40.8451 165.191 40.4246 160.73L64.5393 132.037L104.664 145.298L116.31 191.483L97.175 216.728L58.0704 210.602ZM176.804 257.005C174.829 257.491 172.802 257.91 170.775 258.287C170.491 258.342 170.202 258.388 169.918 258.44C168.192 258.746 166.447 259.008 164.697 259.222C164.23 259.281 163.768 259.344 163.303 259.4C161.679 259.587 160.039 259.729 158.396 259.845C157.879 259.88 157.368 259.931 156.851 259.964C154.751 260.092 152.633 260.167 150.5 260.167C148.546 260.167 146.604 260.115 144.673 260.014C144.44 260.014 144.216 259.975 143.983 259.958C142.264 259.861 140.554 259.733 138.847 259.568L138.65 259.532C134.91 259.13 131.192 258.541 127.512 257.77L104.147 221.497L122.981 196.595H178.019L197.161 221.662L176.804 257.005ZM258.517 174C258.477 174.187 258.431 174.369 258.39 174.557C257.948 176.492 257.457 178.408 256.917 180.305L256.704 181.049C256.11 183.067 255.472 185.065 254.768 187.031V187.07C253.283 191.218 251.547 195.272 249.566 199.212L249.534 199.271C248.588 201.145 247.593 202.989 246.544 204.8L246.288 205.24C245.234 207.068 244.125 208.852 242.962 210.598L203.991 216.691L184.723 191.468L196.363 145.294L236.488 132.034L260.602 160.726C260.184 165.189 259.488 169.622 258.517 174V174Z" fill="#02587B"/>
</svg>
