<svg width="300" height="300" viewBox="0 0 300 300" fill="none" xmlns="http://www.w3.org/2000/svg">
<circle cx="150" cy="150" r="149" stroke="#02587B" stroke-width="2"/>
<path d="M133.713 155.686H167.287V166.057H133.713V155.686Z" fill="#02587B"/>
<path d="M209.956 166.056H178.479V171.242C178.479 174.108 175.975 176.428 172.883 176.428H128.117C125.025 176.428 122.521 174.108 122.521 171.242V166.056H91.0442C83.8091 166.056 77.4105 161.782 75.1198 155.422L55 99.4775V212.726C55 221.304 62.5309 228.283 71.7871 228.283H229.213C238.469 228.283 246 221.304 246 212.726V99.4816L225.879 155.422C223.59 161.782 217.191 166.056 209.956 166.056V166.056Z" fill="#02587B"/>
<path d="M172.882 72.7168H128.116C118.86 72.7168 111.329 79.6957 111.329 88.2734V93.459H64.627L85.7318 152.141C86.4968 154.262 88.6331 155.686 91.0433 155.686H122.521V150.5C122.521 147.634 125.024 145.314 128.116 145.314H172.882C175.974 145.314 178.478 147.634 178.478 150.5V155.686H209.955C212.365 155.686 214.501 154.262 215.266 152.141L236.373 93.459H189.669V88.2734C189.669 79.6957 182.138 72.7168 172.882 72.7168V72.7168ZM122.521 93.459V88.2734C122.521 85.4119 125.028 83.0879 128.116 83.0879H172.882C175.97 83.0879 178.478 85.4119 178.478 88.2734V93.459H122.521Z" fill="#02587B"/>
</svg>
