<svg width="300" height="300" viewBox="0 0 300 300" fill="none" xmlns="http://www.w3.org/2000/svg">
<circle cx="150" cy="150" r="149" stroke="#02587B" stroke-width="2"/>
<g clip-path="url(#clip0)">
<path d="M225.848 92.4361C224.162 89.6764 220.668 89.2745 218.481 91.393C209.612 99.9813 208.953 100.568 206.637 103.048L194.011 101.187L192.73 104.896C194.33 108.468 194.562 112.593 193.347 116.355L195.863 116.726C192.578 121.695 189.705 126.952 187.275 132.438C186.869 140.935 187.598 149.475 189.466 157.802C192.346 143.353 198.316 129.86 206.895 118.352L211.934 119.094C215.788 119.665 219.367 116.782 219.901 112.636C220.223 110.134 219.357 107.755 217.771 106.136L224.916 99.2157C226.703 97.4848 227.166 94.5945 225.848 92.4361Z" fill="#02587B"/>
<path d="M188.213 86.1104C185.689 85.1105 182.888 86.4921 181.956 89.1905L179.492 96.3187C182.949 96.1876 186.199 97.4092 188.753 99.5726L191.092 92.8027C192.025 90.1042 190.736 87.1077 188.213 86.1104Z" fill="#02587B"/>
<path d="M195.172 240.666C203.094 238.49 208.95 230.8 208.95 221.647C208.95 218.193 208.113 214.948 206.648 212.129C205.061 209.074 202.736 206.521 199.928 204.743L187.828 171.657C182.518 157.138 180.665 141.597 182.269 126.352C181.766 126.439 182.352 126.361 172.365 127.56C171.01 143.711 173.141 160.097 178.757 175.454L188.354 201.696L182.176 200.817L176.427 185.097L174.937 199.788L156.905 197.224C155.566 199.532 153.782 201.431 151.401 202.863L154.415 203.018C157.338 203.17 159.79 205.616 159.933 208.743C160.1 212.406 157.279 215.274 154.017 215.097C151.662 214.976 136.155 214.174 134.11 214.068C130.994 213.907 128.59 211.074 128.74 207.74C128.872 204.84 130.967 201.805 135.177 202.024C132.361 199.912 130.269 196.825 129.286 193.297L119.389 191.89L124.273 175.48C124.611 174.344 124.729 173.146 124.619 171.96L122.95 153.987C107.307 150.866 107.763 151.032 106.174 150.42L108.168 171.892L103.122 188.845C87.0846 189.956 74.3965 204.213 74.3965 221.647C74.3965 231.267 78.2595 239.921 84.4155 245.933L79.873 250.793C78.4923 252.27 78.2371 254.637 79.4066 256.309C80.8642 258.394 83.6405 258.551 85.2968 256.779L90.8989 250.787C95.156 253.172 99.9969 254.528 105.136 254.528C109.718 254.528 185.466 242.005 185.466 242.005L199.051 256.757C200.561 258.396 203.028 258.418 204.562 256.802C206.094 255.187 206.113 252.549 204.603 250.908L195.172 240.666ZM123.483 222.671C123.01 232.654 115.426 240.767 106.092 241.273C95.1914 241.864 86.237 232.286 86.7894 220.626C87.2624 210.642 94.8463 202.53 104.18 202.023C115.081 201.432 124.035 211.01 123.483 222.671Z" fill="#02587B"/>
<path d="M158.487 44.9007C150.116 40.2442 139.876 44.4799 136.612 53.9492C133.921 61.7576 137.135 70.6478 144.038 74.4871C152.409 79.1432 162.648 74.9079 165.912 65.4391C168.605 57.6306 165.391 48.7405 158.487 44.9007Z" fill="#02587B"/>
<path d="M179.189 103.914L154.889 106.832L140.152 88.0517C143.325 90.4427 147.985 93.955 154.963 99.2141L172.764 97.0775C172.764 97.0775 146.585 84.7914 130.791 77.3193C125.98 75.0438 120.103 78.2784 117.952 84.3341C116.406 88.687 104.267 122.871 102.295 128.427C100.16 134.437 102.283 140.979 107.272 143.006C108.937 143.987 107.316 143.484 139.315 149.869L135.492 187.658C134.949 193.036 138.888 197.708 143.937 197.708C148.211 197.708 151.889 194.262 152.36 189.61L157.028 143.466C157.505 138.752 154.508 134.44 150.15 133.57L136.69 130.885L140.055 122.185C138.912 119.586 130.408 100.242 129.323 97.7742L146.496 119.659C147.993 121.568 150.308 122.599 152.699 122.313L180.581 118.966C184.187 118.533 187.054 115.328 187.047 111.446C187.039 106.857 183.335 103.416 179.189 103.914Z" fill="#02587B"/>
</g>
<defs>
<clipPath id="clip0">
<rect x="50" y="43" width="201" height="215" fill="white"/>
</clipPath>
</defs>
</svg>
