<svg width="300" height="300" viewBox="0 0 300 300" fill="none" xmlns="http://www.w3.org/2000/svg">
<circle cx="150" cy="150" r="149" stroke="#02587B" stroke-width="2"/>
<g clip-path="url(#clip0)">
<path d="M198.922 213.799C196.756 213.501 195.122 213.295 193.792 213.129C189.704 212.614 188.607 212.475 183.829 211.155C181.946 210.635 174.58 204.041 174.58 191.136C174.58 174.511 179.028 159.83 180.939 154.29C180.989 154.146 181.114 153.727 181.286 153.161C181.602 152.121 183.921 145.839 183.921 145.839C185.178 142.643 186.479 139.338 187.325 135.942L187.37 135.769C188.646 130.852 192.834 112.882 193.131 88.0251C193.131 85.5169 190.782 83.3345 189.379 82.0311C189.122 81.7917 188.894 81.5821 188.724 81.406C187.373 80.0117 185.595 78.2904 183.534 76.2986C182.177 74.9849 180.683 73.5377 179.072 71.9545C176.496 69.4256 173.623 67.112 170.844 64.8755C167.426 62.1266 163.894 59.284 160.991 56.0792C156.653 51.2913 152.643 42.9112 153.369 36.1574C153.479 35.1385 153.211 34.2583 152.615 33.6768C151.953 33.0303 150.915 32.8289 150.001 33.1495C149.086 32.8289 148.048 33.0303 147.387 33.6768C146.792 34.2583 146.523 35.1385 146.634 36.1574C147.359 42.9112 143.348 51.2913 139.011 56.0792C136.107 59.284 132.575 62.1266 129.158 64.8755C126.38 67.112 123.505 69.4256 120.93 71.9545C119.32 73.5377 117.823 74.9849 116.467 76.2986C114.406 78.2904 112.629 80.0117 111.277 81.406C111.107 81.5821 110.881 81.7917 110.623 82.0311C109.22 83.3345 106.87 85.5169 106.87 88.0377C107.168 112.882 111.356 130.852 112.632 135.769L112.677 135.942C113.522 139.338 114.824 142.644 116.08 145.839C116.08 145.839 118.398 152.121 118.714 153.161C118.887 153.727 119.012 154.146 119.063 154.29C120.973 159.83 125.42 174.511 125.42 191.136C125.42 204.042 118.055 210.635 116.173 211.155C111.395 212.475 110.296 212.614 106.209 213.129C104.878 213.295 103.245 213.501 101.08 213.799C77.6137 216.015 75.0801 226.354 75.0801 230.697C75.0801 231.861 75.7592 235.643 78.8565 239.13C81.6398 242.263 87.1832 245.999 97.7937 245.999C99.3855 245.999 101.069 245.915 102.8 245.749C109.862 245.076 116.979 244.064 123.86 243.086C126.36 242.731 128.855 242.376 131.355 242.036C134.686 241.583 140.687 241.282 149.192 241.144C149.59 241.137 149.867 241.132 150.001 241.128C150.136 241.132 150.413 241.138 150.81 241.144C159.315 241.282 165.317 241.583 168.647 242.036C171.146 242.376 173.642 242.731 176.141 243.086C183.023 244.064 190.141 245.076 197.201 245.749C198.932 245.915 200.616 245.999 202.208 245.999C212.82 245.999 218.365 242.264 221.146 239.13C224.244 235.643 224.921 231.86 224.921 230.697C224.92 226.354 222.388 216.015 198.922 213.799ZM162.409 129.158C162.06 129.158 161.728 129.091 161.393 128.95C160.301 128.563 158.901 126.713 158.771 125.994C164.208 122.637 167.881 116.26 167.881 108.94C167.881 98.1304 166.596 89.367 150 89.367C133.404 89.367 132.119 98.1304 132.119 108.94C132.119 116.26 135.792 122.637 141.228 125.994C141.101 126.711 139.669 128.474 138.607 128.95C138.273 129.091 137.942 129.158 137.591 129.158C134.097 129.159 129.717 122.367 128.567 119.664C126.607 115.072 124.161 107.179 123.636 95.6602L123.615 95.217C123.481 92.7905 127.599 86.5853 128.145 85.5238C128.894 84.0621 138.623 70.9016 141.512 67.7838C142.535 66.6814 147.717 60.5746 150.001 57.8793C152.284 60.5746 157.465 66.6814 158.488 67.7838C161.379 70.9016 171.104 84.0621 171.856 85.5238C172.402 86.5853 176.52 92.7905 176.386 95.217L176.365 95.6602C175.84 107.179 173.395 115.073 171.433 119.664C170.283 122.366 165.905 129.158 162.409 129.158Z" fill="#02587B"/>
</g>
<defs>
<clipPath id="clip0">
<rect x="30" y="33" width="240" height="213" fill="white"/>
</clipPath>
</defs>
</svg>
